<svg xmlns="http://www.w3.org/2000/svg" viewBox="0 0 153.39 36.22"><defs><style>.cls-1{fill:#35b67c;}.cls-2{fill:#231f20;}.cls-3{fill:#e0f0ea;}.cls-3,.cls-4{fill-rule:evenodd;}.cls-4{fill:#fff;}</style></defs><title>Asset 1</title><g id="Layer_2" data-name="Layer 2"><g id="Layer_1-2" data-name="Layer 1"><circle class="cls-1" cx="18.11" cy="18.11" r="18.11"/><path class="cls-2" d="M44.8,13.59V10h13v3.58H53.65V26.2H49V13.59Z"/><path class="cls-2" d="M62.38,14.33v2.35a3.7,3.7,0,0,1,3.83-2.51V18c-2.47-.07-3.83.7-3.83,2.6v5.61H58.32V14.33Z"/><path class="cls-2" d="M67.37,11.12a2.23,2.23,0,1,1,2.22,2.08A2.11,2.11,0,0,1,67.37,11.12Zm4.26,3.21V26.17H67.58V14.33Z"/><path class="cls-2" d="M74.84,29.39a4.51,4.51,0,0,1-1.72-3.21h4c.18.88.7,1.54,2.17,1.54a2.23,2.23,0,0,0,2.51-2.49V23.41a3.94,3.94,0,0,1-1.38,1.49,4,4,0,0,1-2.29.68,4.76,4.76,0,0,1-3.55-1.47,6,6,0,0,1-1.47-4.21v-.18a6.08,6.08,0,0,1,1.47-4.17A4.74,4.74,0,0,1,78.17,14a3.85,3.85,0,0,1,3.67,2V14.33h4.05V25.18c0,3.55-2.31,5.39-6.56,5.39A7.37,7.37,0,0,1,74.84,29.39Zm7.11-9.51v-.16c0-1.63-.82-2.67-2.33-2.67s-2.33,1.06-2.33,2.69v.18c0,1.63.86,2.67,2.31,2.67S81.95,21.58,81.95,19.88Z"/><path class="cls-2" d="M89,29.39a4.51,4.51,0,0,1-1.72-3.21h4c.18.88.7,1.54,2.17,1.54A2.23,2.23,0,0,0,96,25.22V23.41a3.94,3.94,0,0,1-1.38,1.49,4,4,0,0,1-2.29.68,4.76,4.76,0,0,1-3.55-1.47,6,6,0,0,1-1.47-4.21v-.18a6.08,6.08,0,0,1,1.47-4.17A4.74,4.74,0,0,1,92.29,14,3.85,3.85,0,0,1,96,16V14.33H100V25.18c0,3.55-2.31,5.39-6.56,5.39A7.36,7.36,0,0,1,89,29.39Zm7.11-9.51v-.16c0-1.63-.82-2.67-2.33-2.67s-2.33,1.06-2.33,2.69v.18c0,1.63.86,2.67,2.31,2.67S96.07,21.58,96.07,19.88Z"/><path class="cls-2" d="M105.7,14.33v1.81A4.1,4.1,0,0,1,109.41,14a3.16,3.16,0,0,1,3.21,2,4.66,4.66,0,0,1,3.92-2,3.77,3.77,0,0,1,2.78,1.09,4.92,4.92,0,0,1,1.09,3.33v7.74h-4.05V19.11c0-1.2-.59-1.79-1.52-1.79a1.75,1.75,0,0,0-1.81,2v6.86h-4V19.11c0-1.2-.59-1.79-1.52-1.79a1.75,1.75,0,0,0-1.81,2v6.86h-4.05V14.33Z"/><path class="cls-2" d="M121.81,11.12A2.23,2.23,0,1,1,124,13.2,2.11,2.11,0,0,1,121.81,11.12Zm4.26,3.21V26.17H122V14.33Z"/><path class="cls-2" d="M131.93,14.33v1.9A4.12,4.12,0,0,1,135.82,14c2.29,0,3.87,1.45,3.87,4.46v7.7h-4.05V19.29c0-1.36-.52-2-1.7-2s-2,.7-2,2.24v6.63h-4.05V14.33Z"/><path class="cls-2" d="M142.79,24.88A5.78,5.78,0,0,1,141,20.4v-.18a6,6,0,0,1,1.86-4.53A6.55,6.55,0,0,1,147.37,14a6.23,6.23,0,0,1,4.23,1.47,6.05,6.05,0,0,1,1.79,4.64v1.06h-8.33a2.36,2.36,0,0,0,2.47,2.47c1.36,0,1.9-.61,2.06-1.4h3.8c-.36,2.69-2.4,4.19-6,4.19A6.68,6.68,0,0,1,142.79,24.88Zm4.57-8.19a2.22,2.22,0,0,0-2.26,2.22h4.35C149.38,17.46,148.7,16.69,147.37,16.69Z"/><circle class="cls-1" cx="23.66" cy="24.02"/><path class="cls-3" d="M7.54,14.42,25.43,9.63a.83.83,0,0,1,1,1L21.66,28.54a.83.83,0,0,1-1.49.26l-4.25-8.64L7.29,15.91A.83.83,0,0,1,7.54,14.42Z"/><path class="cls-4" d="M21.66,28.54l4.79-17.89a.83.83,0,0,0-.22-.8L15.92,20.16l4.25,8.63A.83.83,0,0,0,21.66,28.54Z"/></g></g></svg>